Plot Summary:

Rachel's middle sister shows up on Thanksgiving Day.


General

Format                           : MPEG-PS
File size                        : 252 MiB
Duration                         : 25mn 18s
Overall bit rate                 : 1 395 Kbps
Writing library                  : encoded by TMPGEnc (ver. 2.52.34.129)

Video

Format                           : MPEG Video
Bit rate                         : 1 150 Kbps
Width                            : 352 pixels
Height                           : 240 pixels
Display aspect ratio             : 4:3
Frame rate                       : 29.970 fps
Bits/(Pixel*Frame)               : 0.454
Stream size                      : 207 MiB (82%)

Audio
Format profile                   : Layer 2
Duration                         : 25mn 18s
Channel(s)                       : 2 channels
Sampling rate                    : 44.1 KHz
Stream size                      : 40.5 MiB (16%)
